<svg viewBox="0 0 48 48" xmlns="http://www.w3.org/2000/svg"><path style="stroke:#000;fill:#000" d="M23 1c-1.108 0-2 .892-2 2v3c0 .094.007.185.02.275a18 18 0 0 0-8.229 3.688L9.857 7.029a.998.998 0 0 0-1.414 0L7.03 8.443a.998.998 0 0 0 0 1.414l2.934 2.934a18 18 0 0 0-3.688 8.229A2.024 2.024 0 0 0 6 21H3c-1.108 0-2 .892-2 2v2c0 1.108.892 2 2 2h3c.094 0 .185-.007.275-.02a18 18 0 0 0 3.688 8.229l-2.934 2.934a.998.998 0 0 0 0 1.414l1.414 1.414a.998.998 0 0 0 1.414 0l2.934-2.934a18 18 0 0 0 8.229 3.688c-.013.09-.02.181-.02.275v3c0 1.108.892 2 2 2h2c1.108 0 2-.892 2-2v-3c0-.094-.007-.185-.02-.275a18 18 0 0 0 8.229-3.688l2.934 2.934a.998.998 0 0 0 1.414 0l1.414-1.414a.998.998 0 0 0 0-1.414l-2.934-2.934a18 18 0 0 0 3.688-8.229c.09.013.181.02.275.02h3c1.108 0 2-.892 2-2v-2c0-1.108-.892-2-2-2h-3c-.086 0-.17.005-.254.016a18 18 0 0 0-3.685-8.248l2.91-2.91a.998.998 0 0 0 0-1.415L39.557 7.03a.998.998 0 0 0-1.414 0l-2.91 2.91a18 18 0 0 0-8.249-3.685A2.03 2.03 0 0 0 27 6V3c0-1.108-.892-2-2-2h-2z"/><path fill="#fff" d="M14 16h7v7h-7z"/></svg>